<?xml version="1.0" encoding="utf-8"?>
<!-- Generator: Adobe Illustrator 21.1.0, SVG Export Plug-In . SVG Version: 6.00 Build 0)  -->
<svg version="1.1" id="Layer_1" xmlns="http://www.w3.org/2000/svg" xmlns:xlink="http://www.w3.org/1999/xlink" x="0px" y="0px"
	 viewBox="0 0 31.9 32" style="enable-background:new 0 0 31.9 32;" xml:space="preserve">
<style type="text/css">
	.st0{fill:#23202F;}
	.st1{fill:#323B4B;}
	.st2{fill:#334055;}
	.st3{fill:#CBD3DB;}
	.st4{fill:#363545;}
	.st5{fill:#D3DAE2;}
	.st6{fill:#555369;}
	.st7{fill:#556987;}
	.st8{fill:#302F3D;}
</style>
<g>
	<polyline class="st0" points="4.7,18.2 4.2,16.8 5.8,16.3 6.3,17.7 4.7,18.2 	"/>
	<path class="st1" d="M24.7,11.8l3.9,11.5c0.3,0.8-0.2,1.7-1,2l-16.5,5.6c-0.8,0.3-1.7-0.2-2-1L5.2,18.3L24.7,11.8L24.7,11.8z"/>
	<path class="st2" d="M23,12.3c-0.2,7.6-9,13.8-14.2,16.8L5.2,18.3L23,12.3L23,12.3z"/>
	<path class="st3" d="M24.9,11.2l0.4,1.3c0.1,0.2,0,0.5-0.3,0.6L5.6,19.6c-0.2,0.1-0.5,0-0.5-0.3L4.6,18c-0.1-0.2,0-0.5,0.3-0.5
		l19.5-6.6c0.1,0,0.1,0,0.2,0S24.8,11,24.9,11.2"/>
	<path class="st4" d="M6.9,16.8l-1.1,2.7l-0.2,0.1c-0.2,0.1-0.5,0-0.5-0.3L4.6,18c-0.1-0.2,0-0.5,0.3-0.5L6.9,16.8"/>
	<polyline class="st4" points="11.3,15.3 10.2,18 7.4,19 8.5,16.2 11.3,15.3 	"/>
	<polyline class="st4" points="15.7,13.8 14.7,16.5 11.8,17.5 12.9,14.7 15.7,13.8 	"/>
	<polyline class="st4" points="20.2,12.3 19.1,15 16.2,16 17.3,13.2 20.2,12.3 	"/>
	<path class="st4" d="M23.9,14.7l-0.6,1.5l-1.6,0.5l0.6-1.5l1.4-0.5C23.9,14.7,23.9,14.7,23.9,14.7"/>
	<path class="st5" d="M6.6,17.6l0.2-0.5l1.6-0.5L8.2,17L6.6,17.6 M11,16.1l0.2-0.5l1.6-0.5l-0.2,0.5L11,16.1 M15.4,14.6l0.2-0.5
		l1.6-0.5L17,14L15.4,14.6 M19.8,13.1l0.2-0.5l1.6-0.5l-0.2,0.5L19.8,13.1"/>
	<path class="st6" d="M5.3,18c-0.1,0-0.1,0-0.2-0.1c0-0.1,0-0.2,0.1-0.2l1.5-0.5l-0.2,0.5L5.3,18C5.4,18,5.3,18,5.3,18"/>
	<polyline class="st6" points="8.2,17 8.4,16.6 11.2,15.6 11,16.1 8.2,17 	"/>
	<polyline class="st6" points="12.6,15.5 12.8,15.1 15.6,14.1 15.4,14.6 12.6,15.5 	"/>
	<polyline class="st6" points="17,14 17.2,13.6 20,12.6 19.8,13.1 17,14 	"/>
	<path class="st6" d="M21.4,12.5l0.2-0.5l1.9-0.7c0,0,0,0,0.1,0s0.1,0,0.2,0.1c0,0.1,0,0.2-0.1,0.2L21.4,12.5"/>
	<path class="st3" d="M18.5,1.2l1,1c0.2,0.2,0.2,0.4,0,0.6L4.9,17.3c-0.2,0.2-0.4,0.2-0.6,0l-1-1c-0.2-0.2-0.2-0.4,0-0.6L17.9,1.2
		c0,0,0.1-0.1,0.2-0.1C18.2,1,18.4,1.1,18.5,1.2"/>
	<path class="st4" d="M4.8,14.2L5,17.1l-0.2,0.2c-0.2,0.2-0.4,0.2-0.6,0l-1-1c-0.2-0.2-0.2-0.4,0-0.6L4.8,14.2"/>
	<polyline class="st4" points="8.1,10.9 8.4,13.8 6.3,15.9 6,13 8.1,10.9 	"/>
	<polyline class="st4" points="11.4,7.6 11.7,10.5 9.6,12.6 9.3,9.7 11.4,7.6 	"/>
	<polyline class="st4" points="14.7,4.3 15,7.3 12.9,9.3 12.6,6.4 14.7,4.3 	"/>
	<path class="st4" d="M18.1,1.1L18.3,4l-2.1,2.1L16,3.2l1.9-1.9C17.9,1.2,18,1.1,18.1,1.1"/>
	<path class="st5" d="M4.9,15v-0.5l1.2-1.2v0.5L4.9,15 M8.2,11.7v-0.5L9.4,10v0.5L8.2,11.7 M11.5,8.4V7.9l1.2-1.2v0.5L11.5,8.4
		 M14.8,5.2V4.7L16,3.5V4L14.8,5.2"/>
	<path class="st6" d="M3.9,16c0,0-0.1,0-0.1-0.1c-0.1-0.1-0.1-0.2,0-0.3l1.1-1.1V15L4,15.9C4,15.9,4,16,3.9,16L3.9,16"/>
	<polyline class="st6" points="6.1,13.8 6.1,13.3 8.2,11.2 8.2,11.7 6.1,13.8 	"/>
	<polyline class="st6" points="9.4,10.5 9.4,10.1 11.5,8 11.5,8.4 9.4,10.5 	"/>
	<polyline class="st6" points="12.7,7.3 12.7,6.8 14.8,4.7 14.8,5.2 12.7,7.3 	"/>
	<path class="st6" d="M16,4V3.5L17.4,2l0.1-0.1c0,0,0.1,0,0.1,0.1c0.1,0.1,0.1,0.2,0,0.3L16,4"/>
	<path class="st0" d="M4.9,16.6C5,16.8,4.8,17,4.7,17c-0.2,0.1-0.4-0.1-0.4-0.2c-0.1-0.2,0.1-0.4,0.2-0.4
		C4.6,16.3,4.8,16.4,4.9,16.6L4.9,16.6z"/>
	<path class="st3" d="M25.5,17L8,22.9c-0.1,0-0.2,0-0.2-0.1s0-0.2,0.1-0.2l17.4-5.9c0.1,0,0.2,0,0.2,0.1C25.6,16.9,25.6,17,25.5,17
		L25.5,17z"/>
	<path class="st3" d="M12.9,21.3c-0.1,0-0.2,0-0.2-0.1l-0.9-2.6c0-0.1,0-0.2,0.1-0.2s0.2,0,0.2,0.1L13,21
		C13.1,21.1,13,21.2,12.9,21.3L12.9,21.3z"/>
	<path class="st3" d="M21.8,18.3c-0.1,0-0.2,0-0.2-0.1l-0.9-2.6c0-0.1,0-0.2,0.1-0.2s0.2,0,0.2,0.1l0.9,2.6
		C21.9,18.1,21.9,18.2,21.8,18.3L21.8,18.3z"/>
	<path class="st3" d="M26.8,21L9.4,26.9c-0.1,0-0.2,0-0.2-0.1s0-0.2,0.1-0.2l17.4-5.9c0.1,0,0.2,0,0.2,0.1C27,20.9,26.9,21,26.8,21
		L26.8,21z"/>
	<path class="st3" d="M7.2,20.4L7.2,20.4c0.2-0.1,0.2-0.1,0.2-0.2s-0.1-0.1-0.2-0.1H7.1L7.2,20.4L7.2,20.4z M7,20.1
		c0,0,0.1-0.1,0.2-0.1s0.2,0,0.2,0l0.1,0.1c0,0.1,0,0.2-0.1,0.2l0,0c0.1,0,0.1,0,0.2,0.1s0.1,0.2,0.1,0.2H7.6c0,0-0.1-0.1-0.1-0.2
		c-0.1-0.1-0.1-0.1-0.2-0.1H7.2l0.1,0.3H7.2L7,20.1L7,20.1z"/>
	<path class="st3" d="M7.9,20.2c0.1,0.2,0.2,0.3,0.3,0.2c0.2-0.1,0.2-0.2,0.1-0.4c-0.1-0.2-0.2-0.3-0.3-0.2
		C7.9,19.9,7.8,20.1,7.9,20.2L7.9,20.2z M8.5,20c0.1,0.3,0,0.5-0.2,0.5c-0.2,0.1-0.4,0-0.5-0.3c-0.1-0.2,0-0.4,0.2-0.5
		C8.2,19.7,8.4,19.8,8.5,20L8.5,20z"/>
	<polygon class="st3" points="8.6,19.6 8.7,19.5 8.9,20.2 9.2,20.1 9.2,20.2 8.8,20.3 	"/>
	<polygon class="st3" points="9.2,19.4 9.3,19.3 9.5,20 9.8,19.9 9.9,20 9.5,20.1 	"/>
	<path class="st3" d="M9.2,25.4h0.1c0.3-0.1,0.3-0.4,0.1-1c-0.2-0.5-0.4-0.7-0.6-0.6c-0.1,0-0.1,0-0.1,0.1L9.2,25.4L9.2,25.4z
		 M8.5,23.8c0.1,0,0.2-0.1,0.2-0.1c0.2-0.1,0.3,0,0.5,0.1c0.1,0.1,0.3,0.3,0.4,0.6c0.1,0.3,0.1,0.6,0.1,0.8c0,0.2-0.1,0.4-0.3,0.4
		c-0.1,0-0.2,0-0.2,0.1L8.5,23.8L8.5,23.8z"/>
	<polygon class="st3" points="9.6,23.4 10.3,25.3 10.2,25.3 9.5,23.4 	"/>
	<path class="st3" d="M10.4,24.1h0.1c0.1,0,0.2-0.2,0.1-0.4c-0.1-0.2-0.2-0.3-0.3-0.3s-0.1,0-0.1,0.1L10.4,24.1L10.4,24.1z
		 M9.9,23.3c0.1,0,0.1-0.1,0.2-0.1c0.1,0,0.2,0,0.3,0.1s0.1,0.2,0.2,0.3c0.1,0.3,0.1,0.4,0,0.6l0,0c0.1,0,0.2,0.1,0.3,0.3
		c0.1,0.3,0.2,0.4,0.3,0.5h-0.1c0,0-0.1-0.2-0.2-0.4c-0.1-0.3-0.2-0.3-0.3-0.3h-0.1l0.3,0.8h-0.1L9.9,23.3L9.9,23.3z"/>
	<polygon class="st3" points="11.6,23.8 11.2,24 11.5,24.7 11.9,24.5 11.9,24.7 11.4,24.9 10.8,23 11.3,22.8 11.3,23 11,23.1 
		11.2,23.8 11.5,23.6 	"/>
	<path class="st3" d="M12.8,24.4c0,0.1-0.1,0.1-0.2,0.2c-0.3,0.1-0.6-0.2-0.8-0.8c-0.2-0.6-0.1-1.1,0.2-1.2c0.1,0,0.2,0,0.3,0v0.2
		c-0.1,0-0.1,0-0.2,0c-0.2,0.1-0.3,0.4-0.1,0.9s0.4,0.7,0.6,0.6c0.1,0,0.1-0.1,0.2-0.1V24.4L12.8,24.4z"/>
	<polygon class="st3" points="12.7,22.6 12.4,22.7 12.3,22.4 13.1,22.2 13.1,22.4 12.8,22.5 13.4,24.2 13.3,24.3 	"/>
	<path class="st3" d="M13.6,23.1c0.1,0.4,0.4,0.7,0.6,0.7c0.2-0.1,0.2-0.5,0-0.9c-0.1-0.4-0.4-0.7-0.6-0.7
		C13.4,22.3,13.5,22.7,13.6,23.1L13.6,23.1z M14.3,22.8c0.2,0.7,0.1,1.1-0.1,1.2c-0.3,0.1-0.6-0.2-0.8-0.8c-0.2-0.6-0.2-1.1,0.1-1.2
		S14.1,22.3,14.3,22.8L14.3,22.8z"/>
	<path class="st3" d="M14.7,22.7h0.1c0.1,0,0.2-0.2,0.1-0.4c-0.1-0.2-0.2-0.3-0.3-0.3s-0.1,0-0.1,0.1L14.7,22.7L14.7,22.7z
		 M14.2,21.8c0.1,0,0.1-0.1,0.2-0.1c0.1,0,0.2,0,0.3,0.1s0.1,0.2,0.2,0.3c0.1,0.3,0.1,0.4,0,0.6l0,0c0.1,0,0.2,0.1,0.3,0.3
		c0.1,0.3,0.2,0.4,0.3,0.5h-0.1c0,0-0.1-0.2-0.2-0.4c-0.1-0.3-0.2-0.3-0.3-0.3h-0.1l0.3,0.8H15L14.2,21.8L14.2,21.8z"/>
	<path class="st3" d="M13,18.8c0.1,0,0.1,0,0.2,0c0.1,0,0.1-0.1,0.1-0.2s-0.1-0.1-0.2-0.1c-0.1,0-0.2,0-0.3-0.1c0-0.1,0-0.2,0.2-0.3
		c0.1,0,0.1,0,0.2,0v0.1c0,0-0.1,0-0.2,0c-0.1,0-0.1,0.1-0.1,0.2s0.1,0.1,0.2,0.1c0.1,0,0.2,0,0.3,0.2c0,0.1,0,0.2-0.2,0.3
		C13.2,18.9,13.1,18.9,13,18.8L13,18.8L13,18.8z"/>
	<path class="st3" d="M14.2,18.5c0,0-0.1,0.1-0.2,0.1c-0.2,0.1-0.4,0-0.5-0.3c-0.1-0.2,0-0.5,0.2-0.5c0.1,0,0.2,0,0.2,0v0.1
		c0,0-0.1,0-0.2,0c-0.2,0.1-0.2,0.2-0.2,0.4c0.1,0.2,0.2,0.3,0.4,0.2C14.1,18.5,14.2,18.4,14.2,18.5L14.2,18.5L14.2,18.5z"/>
	<polygon class="st3" points="14.7,17.9 14.5,18 14.5,18.3 14.9,18.2 14.9,18.3 14.5,18.4 14.2,17.7 14.6,17.5 14.6,17.6 14.3,17.7 
		14.4,17.9 14.7,17.8 	"/>
	<path class="st3" d="M15.1,18.2l-0.3-0.8h0.1l0.4,0.3c0.1,0.1,0.2,0.1,0.2,0.2l0,0c0-0.1-0.1-0.2-0.1-0.3l-0.1-0.3h0.1l0.3,0.8
		h-0.1l-0.4-0.3c-0.1-0.1-0.2-0.1-0.2-0.2l0,0c0,0.1,0.1,0.2,0.1,0.3V18.2L15.1,18.2L15.1,18.2z"/>
	<polygon class="st3" points="16.2,17.4 15.9,17.5 16,17.8 16.3,17.7 16.4,17.8 16,17.9 15.7,17.2 16.1,17 16.1,17.1 15.8,17.2 
		15.9,17.4 16.2,17.4 	"/>
	<path class="st3" d="M19.9,24.9c0,0-0.1,0.1-0.2,0.1c-0.2,0.1-0.4,0-0.5-0.3c-0.1-0.2,0-0.5,0.2-0.5c0.1,0,0.2,0,0.2,0v0.1
		c0,0-0.1,0-0.2,0c-0.2,0.1-0.2,0.2-0.2,0.4c0.1,0.2,0.2,0.3,0.4,0.2C19.8,24.9,19.8,24.8,19.9,24.9L19.9,24.9L19.9,24.9z"/>
	<path class="st3" d="M20.4,24.4l-0.1-0.2l-0.1-0.1l0,0v0.1v0.2H20.4L20.4,24.4z M20.2,24.5v0.3h-0.1V24h0.1l0.5,0.7h-0.1l-0.2-0.2
		H20.2L20.2,24.5z"/>
	<path class="st3" d="M21.4,24c0-0.1-0.1-0.2-0.1-0.3l0,0c0,0.1,0,0.2,0,0.3v0.4h-0.1L21,24.1c-0.1-0.1-0.1-0.2-0.2-0.3l0,0
		c0,0.1,0.1,0.2,0.1,0.3l0.1,0.3h-0.1l-0.2-0.8h0.1l0.2,0.3c0.1,0.1,0.1,0.2,0.2,0.2l0,0c0-0.1,0-0.2,0-0.3v-0.4h0.1l0.3,0.7h-0.1
		L21.4,24L21.4,24z"/>
	<polygon class="st3" points="22.2,23.7 21.9,23.8 22,24.1 22.3,24 22.3,24.1 21.9,24.2 21.7,23.5 22.1,23.3 22.1,23.4 21.8,23.5 
		21.9,23.7 22.2,23.6 	"/>
	<path class="st3" d="M22.5,23.6L22.5,23.6c0.2-0.1,0.2-0.1,0.2-0.2s-0.1-0.1-0.2-0.1h-0.1L22.5,23.6L22.5,23.6z M22.3,23.2
		c0,0,0.1-0.1,0.2-0.1s0.2,0,0.2,0l0.1,0.1c0,0.1,0,0.2-0.1,0.2l0,0c0.1,0,0.1,0,0.2,0.1s0.1,0.2,0.1,0.2h-0.1c0,0-0.1-0.1-0.1-0.2
		c-0.1-0.1-0.1-0.1-0.2-0.1h-0.1l0.1,0.3h-0.1L22.3,23.2L22.3,23.2z"/>
	<path class="st3" d="M23.5,23.3l-0.1-0.2L23.3,23l0,0v0.1v0.2H23.5L23.5,23.3z M23.3,23.5v0.3h-0.1V23h0.1l0.5,0.7h-0.1l-0.2-0.2
		H23.3L23.3,23.5z"/>
	<path class="st3" d="M22.3,15.7c0,0-0.1,0.1-0.2,0.1c-0.2,0.1-0.4,0-0.5-0.3c-0.1-0.2,0-0.5,0.2-0.5c0.1,0,0.2,0,0.2,0v0.1
		c0,0-0.1,0-0.2,0c-0.2,0.1-0.2,0.2-0.2,0.4c0.1,0.2,0.2,0.3,0.4,0.2C22.2,15.7,22.2,15.7,22.3,15.7L22.3,15.7L22.3,15.7z"/>
	<path class="st3" d="M22.4,14.9l0.2,0.4c0.1,0.2,0.2,0.2,0.3,0.2c0.1,0,0.2-0.1,0.1-0.3l-0.2-0.4h0.1l0.1,0.4
		c0.1,0.2,0,0.4-0.2,0.4c-0.2,0.1-0.3,0-0.4-0.2V14.9L22.4,14.9L22.4,14.9z"/>
	<polygon class="st3" points="23.3,14.7 23,14.8 23,14.7 23.5,14.5 23.6,14.6 23.4,14.7 23.6,15.3 23.5,15.4 	"/>
	<path class="st3" d="M9.9,28.2L9.9,28.2c0.3-0.1,0.4-0.2,0.3-0.5c-0.1-0.2-0.2-0.3-0.4-0.2H9.7L9.9,28.2L9.9,28.2z M9.5,27.6
		c0.1,0,0.1-0.1,0.2-0.1c0.1,0,0.2,0,0.3,0s0.2,0.1,0.2,0.2s0,0.2,0,0.3c0,0.1-0.1,0.2-0.3,0.2c-0.1,0-0.1,0-0.2,0L9.5,27.6
		L9.5,27.6z"/>
	<path class="st3" d="M10.9,27.6l-0.1-0.2l-0.1-0.1l0,0v0.1v0.2H10.9L10.9,27.6z M10.6,27.8v0.3h-0.1v-0.8h0.1l0.5,0.7H11l-0.2-0.2
		H10.6L10.6,27.8z"/>
	<polygon class="st3" points="11.2,27.1 11,27.2 11,27.1 11.5,26.9 11.5,27 11.3,27.1 11.5,27.7 11.4,27.8 	"/>
	<polygon class="st3" points="12.2,27.1 11.9,27.2 12,27.5 12.3,27.4 12.4,27.4 12,27.6 11.7,26.8 12.1,26.7 12.1,26.8 11.8,26.9 
		11.9,27.1 12.2,27 	"/>
	<path class="st3" d="M19.1,27.6c-0.1,0-0.2,0-0.2-0.1L17.7,24c0-0.1,0-0.2,0.1-0.2s0.2,0,0.2,0.1l1.2,3.5
		C19.3,27.4,19.2,27.5,19.1,27.6L19.1,27.6z"/>
	<path class="st7" d="M9.5,29.4c-0.1,0-0.2,0-0.2-0.1l-3.2-9.4c0-0.1,0-0.2,0.1-0.2s0.2,0,0.2,0.1l3.2,9.4
		C9.6,29.3,9.6,29.4,9.5,29.4L9.5,29.4z"/>
	<path class="st8" d="M27.2,24.9l-5.5,1.9c-0.1,0-0.2,0-0.2-0.1s0-0.2,0.1-0.2l5.5-1.9c0.1,0,0.2,0,0.2,0.1
		C27.3,24.8,27.3,24.9,27.2,24.9L27.2,24.9z"/>
	<path class="st8" d="M28.1,23.1c-0.1,0-0.2,0-0.2-0.1l-3.2-9.4c0-0.1,0-0.2,0.1-0.2s0.2,0,0.2,0.1l3.2,9.4
		C28.2,23,28.2,23.1,28.1,23.1L28.1,23.1z"/>
	<path class="st8" d="M17.6,28.2l-6.5,2.2c-0.1,0-0.2,0-0.2-0.1s0-0.2,0.1-0.2l6.5-2.2c0.1,0,0.2,0,0.2,0.1
		C17.8,28.1,17.7,28.1,17.6,28.2L17.6,28.2z"/>
</g>
</svg>
